# xmcd CD database file
#
# Track frame offsets:
#	150
#	19912
#	35646
#	52309
#	66924
#	83309
#	100976
#	116824
#	139343
#	151600
#	172694
#	184857
#
# Disc length: 2671 seconds
#
# Revision: 0
# Processed by: cddbd v1.5.1PL2 Copyright (c) Steve Scherf et al.
# Submitted via: CDex 1.51
#
DISCID=9c0a6d0c
DTITLE=Ricken's - YES
DYEAR=2005
DGENRE=Rock
TTITLE0=ランブルフィッシュ
TTITLE1=BE FREE
TTITLE2=My Beach
TTITLE3=permanent vacation
TTITLE4=オン・ザ・ロード
TTITLE5=グラフィティ
TTITLE6=Old man say
TTITLE7=ウェンズデイ
TTITLE8=Slowmusic
TTITLE9=ザ・ニューエスト・マシーン
TTITLE10=One size fits all
TTITLE11=She don't know me
EXTD=YEAR: 2005
EXTT0=
EXTT1=
EXTT2=
EXTT3=
EXTT4=
EXTT5=
EXTT6=
EXTT7=
EXTT8=
EXTT9=
EXTT10=
EXTT11=
PLAYORDER=
